<svg width="400" height="100" fill="none" xmlns="http://www.w3.org/2000/svg">
	<path d="M329.1 3.7A9.7 9.7 0 00315.6 2L308 8a9.7 9.7 0 00-1.7 13.5l3 3.8L332 7.5l-1.5-1.9-1.5-1.9z" fill="#fff"/>
	<path d="M306 51.7c0 14.6 7.3 27.5 18.3 35.4l-9.6 9.5 3.4 3.4 10.3-10.3a43.2 43.2 0 0041.8.2l10.2 10.1 3.3-3.4-9.3-9.3a43.4 43.4 0 10-68.3-35.6zm48.3 0v4.8h-24.1v-4.8h19.3v-29h4.8v29z" fill="#fff"/>
	<path d="M391.3 23.4l1.4-1.9A9.7 9.7 0 00391.1 8l-7.6-6a9.7 9.7 0 00-13.6 1.7l-3 3.8 22.9 17.8 1.4-1.9zM92 79l-.4.4A54 54 0 0150 100 54 54 0 018.4 79.4L8 79v-.6c2.2-14 9.5-25.2 20.6-31.6l.8-.4.6.6A27.2 27.2 0 0070 47l.6-.6.8.4a42.9 42.9 0 0120.6 31.6v.6zM50 50a25 25 0 100-50 25 25 0 000 50zM256.8 66.4l-1.3-1a16 16 0 00-3.4-1.1v9c1.9-.3 4-1 5-2.7a4 4 0 00.4-2.8c-.1-.5-.4-1-.7-1.4zM257 70.6h.1zM243.4 52c-.3.5-.5 1-.6 1.6 0 .6 0 1.2.2 1.7s.6 1 1 1.2l1.7.9 1.6.5v-8c-1.5.2-3 .9-3.9 2.1zm13.8 18.4zm0 0z" fill="#fff"/>
	<path d="M255.2 21.8C262.8 15.4 268 1 264.8.3c-4.2-.8-13.2 2.9-17.5 3.5-6.2.8-13-6.7-16.8-2.5-3 3.3 2.3 15.6 10.5 21-24.6 12.1-59.3 73 1.2 77.3 83.6 6.1 41.7-66 13-77.8zm7.2 48a8.8 8.8 0 01-3.4 5.9 13 13 0 01-7 2.4v2.7c0 .7-.2 1.3-.7 1.8-.8.6-1.8.8-2.7.4a2.5 2.5 0 01-1.4-2.2v-2.9c-.5 0-.9-.2-1.3-.3a12 12 0 01-6-3.7 10.8 10.8 0 01-2.4-4.8 2.5 2.5 0 012.7-2.7c1 .1 1.8.8 2.1 1.7l.3.9.4.8c.3.5.6 1 1 1.3 1 .9 2 1.4 3.2 1.7v-9.7c-2.3-.6-4.6-1.3-6.5-2.8-.9-.7-1.7-1.6-2.2-2.6-.5-1-.7-2.3-.7-3.5a8.4 8.4 0 012.7-6.3c1.8-1.7 4.3-2.6 6.7-3v-2.7c0-.7.3-1.4.8-1.8.7-.7 1.8-.8 2.7-.4.8.4 1.4 1.2 1.4 2.2v2.7l1 .1c2.3.5 4.6 1.5 6.4 3.2a9.4 9.4 0 012.5 4.6 2.5 2.5 0 01-4.7 1.2l-.3-.8a4.3 4.3 0 00-1.5-2 8 8 0 00-3.4-1.3v9.3l4.2 1.2c2 .9 4 2 5.1 4-.2-.3-.3-.5 0 0 .4.7.2.4 0 0a8.8 8.8 0 011 5.3z" fill="#fff"/>
	<path d="M200 17.6a11.4 11.4 0 01-3.2 6.5 23.8 23.8 0 01-7.5 5.2 42.1 42.1 0 01-15 3.8 85.8 85.8 0 01-8 .2c-5-.2-9.8-1-14.5-2.6-3.1-1-6-2.5-8.7-4.5-1.8-1.4-3.3-3-4.4-4.9a9.6 9.6 0 01.1-9.4c1.2-2.2 3-3.8 5-5.2 2.8-2 6-3.4 9.2-4.5a47.8 47.8 0 0111-2l2.3-.2h5l2.9.2a48.4 48.4 0 019.7 1.8c4.3 1.3 8.5 3.2 12 6.3 1.4 1.3 2.6 2.9 3.4 4.7.3.9.6 1.8.7 2.7v2z" fill="#fff"/>
	<path d="M200 30.1a11.4 11.4 0 01-3.2 6.5 23.8 23.8 0 01-7.5 5.2 42.1 42.1 0 01-15 3.8l-4.3.2h-3.8a52.8 52.8 0 01-8-1 39.1 39.1 0 00-12.1-5.4l-2.5-.6c-.5 0-.9-.4-1.3-.8-1.6-1.3-3-2.9-3.9-4.8a9.1 9.1 0 01-.9-4v-4.5c0-.5 0-1 .2-1.6l.1-.1.7 1.9c1 1.9 2.3 3.4 3.9 4.8a29 29 0 008.9 4.9 47 47 0 0018.1 2.9 63.7 63.7 0 0014.4-2.1 32 32 0 0010.7-5.2c1.9-1.4 3.5-3.2 4.6-5.4l.6-1.9.3 1.2v6z" fill="#fff"/>
	<path d="M200 42.6a11.4 11.4 0 01-3.2 6.4 23.8 23.8 0 01-7.5 5.3 42.3 42.3 0 01-15 3.8l-4.4.2H167c-.3 0-.4 0-.4-.3 0-3-1-5.6-2.7-8 0 0-.2-.1-.1-.2 0-.2.2 0 .3 0a62 62 0 005.8.1h2.1a55.4 55.4 0 0015.2-3.2c3-1.1 5.6-2.6 8-4.6 1.9-1.6 3.4-3.4 4.3-5.8l.2-.9.3 1.2v6z" fill="#fff"/>
	<path d="M200 55.1a11.4 11.4 0 01-3.2 6.4 23.8 23.8 0 01-7.5 5.3 42.1 42.1 0 01-15 3.8l-4.4.2H167c-.3 0-.4 0-.4-.4V63c0-.4.1-.5.4-.4a59.2 59.2 0 0020.4-3.3c2.8-1.2 5.5-2.6 7.8-4.6 2-1.6 3.4-3.4 4.3-5.8v-.4l.2-.5.3 1.2v6z" fill="#fff"/>
	<path d="M200 67.6a11.4 11.4 0 01-3.2 6.4 23.8 23.8 0 01-7.5 5.3 42.1 42.1 0 01-15 3.8l-4.4.2H167c-.3 0-.4 0-.4-.4v-7.5c0-.4.1-.5.4-.4a59.2 59.2 0 0020.4-3.3c2.8-1.2 5.5-2.6 7.8-4.6 2-1.6 3.4-3.4 4.3-5.8v-.4l.2-.5.3 1.2v6zM131.3 75c-1.7 0-3.4 0-5-.2-5-.4-9.7-1.4-14.2-3.3-2.6-1-5.1-2.4-7.3-4.3a13.5 13.5 0 01-4.2-5.8c-.9-2.4-.8-4.7.3-7 1-2.2 2.5-3.9 4.3-5.3 2.6-2 5.4-3.5 8.4-4.6a46.2 46.2 0 0113.5-2.7 55.1 55.1 0 0121 2.5c2.7.9 5.3 2 7.6 3.6 1.9 1.3 3.6 2.7 4.9 4.6 1.3 2 2 4.1 1.9 6.5-.1 2-1 3.8-2.1 5.4a19.4 19.4 0 01-6 5.2 39.2 39.2 0 01-17.4 5.1l-5.7.3z" fill="#fff"/>
	<path d="M100.3 64.7l.2.4c.5 1.6 1.4 3.2 2.5 4.5 2.2 2.4 5 4.1 7.9 5.5a42.5 42.5 0 0015.6 3.8 56 56 0 0021.5-2.4c2.9-1 5.6-2.2 8-4a17 17 0 004.8-4.7c.6-.9 1-1.8 1.3-2.9 0 0 0-.2.2-.2v.4c.2.5.2 1 .2 1.6v3.8c0 2.4-.7 4.5-2 6.4a19.3 19.3 0 01-6.1 5.2 39.2 39.2 0 01-17.4 5.1 57 57 0 01-19.3-1.3c-3.5-1-6.8-2.2-10-4a19 19 0 01-5.6-5 10.7 10.7 0 01-2-5.7v-4.8l.1-1.6.1-.1z" fill="#fff"/>
	<path d="M100.3 77.2l.6 1.6c.5 1.2 1.3 2.3 2.1 3.3 2.2 2.4 5 4.1 8 5.5a42.5 42.5 0 0014.8 3.8 60.2 60.2 0 0019.3-1.5c4-1 7.6-2.5 11-4.8 1.9-1.3 3.5-2.9 4.7-4.8a10.7 10.7 0 001.4-3.1l.1.1c.2.6.2 1.2.2 1.7v4c.1 2.4-.7 4.5-2 6.4a19.3 19.3 0 01-6.1 5.2 39.3 39.3 0 01-17.4 5.1l-3 .3h-3.5a53.4 53.4 0 01-14.4-2c-3.3-1-6.4-2.4-9.3-4.3-2-1.3-3.8-2.9-5-5a9.9 9.9 0 01-1.8-5.6v-4.3c0-.6.1-1.1.3-1.6z" fill="#fff"/>
</svg>