<svg width="690" height="245" fill="none" xmlns="http://www.w3.org/2000/svg" preserveAspectRatio="none"><path fill-rule="evenodd" clip-rule="evenodd" d="M0 130c24.589-15.766 49.303-49.925 64.946-61 8.611-6.096 37.282-.194 55-6 27.911-9.146 42.963-50.882 100.45-54.111C244.454 7.537 237.97 44.826 291.946 46c26.172.569 60.768-45.91 79-45 11.868.593 28.786 12.754 47.238 26.618 11.773 8.846 31.654 10.713 43.762 18.382 10.957 6.94 17.194 18.021 27 20 19.246 3.885 24.94-5.787 44-1 49.183 12.351 58.495 63.243 157.054 62v118H0V130z" fill="url(#paint0_linear)"/><defs><linearGradient id="paint0_linear" x1="0" y1="245" x2="0" y2="0" gradientUnits="userSpaceOnUse"><stop stop-color="#323B79"/><stop offset="1" stop-color="#4652AA"/></linearGradient></defs></svg>
