<svg width="690" height="356" fill="none" xmlns="http://www.w3.org/2000/svg" preserveAspectRatio="none"><path fill-rule="evenodd" clip-rule="evenodd" d="M690 69c-11.631 3.673-22.268 9.672-33.054 12-18.462 3.984-30.611-10.522-46-10-19.184.651-10.222 22.142-47 13-7.449-1.852-22.317-16.723-33-19-6.396-1.363-7.869 5.842-14 5-8.253-1.133-15.963 1.197-21.318 1.614-18.084 1.406-11.023 11.783-30.863 13.316-12.075.933-9.804.632-16.818-5.93-22.163-20.732-24.218-17.834-55.001-2-3.391 1.745-9.624-15.179-27-23-15.935-7.173-43.738 7.438-56 1-4.25-2.232-13.721-14.999-19-18-4.711-2.679-5.175 4.428-10 2-16.133-8.119-30.068-35.404-42-38-10.072-2.192-18.601 19.544-27 21-6.511 1.129-11.543-5.732-26.999 1-9.257 4.032-3.471 16.556-10 16-22.227-1.893-21.606 2.475-24.001 9-4.088 11.139-18.202 11.927-27.999 13-7.58.83-8.062-25.41-20-25-15.884.545-17.533 24.597-26.001 23-43.537-8.213-15.053 18.944-45 16-16.342-1.607-10.618-11.355-17-10C3.038 67.529 1.593 69.028 0 69v280l690 7V69z" fill="url(#paint0_linear)"/><defs><linearGradient id="paint0_linear" x1="0" y1="356" x2="0" y2="0" gradientUnits="userSpaceOnUse"><stop stop-color="#2C336A"/><stop offset="1" stop-color="#2D346C"/></linearGradient></defs></svg>
