<svg width="690" height="292" fill="none" xmlns="http://www.w3.org/2000/svg" preserveAspectRatio="none"><path fill-rule="evenodd" clip-rule="evenodd" d="M0 75c5.482 3.401 12.54 7.045 17.946 9 6.289 2.274 22.13-21.137 30-22 11.315-1.241 23.52 22.468 32 20 3.252-.946 20.588-12.296 35-14 8.361-.988 12.265 5.269 21 7 43.192 8.561 92.352 8.456 125 0 18.75-4.856 47.751-14.434 74-14 22.502.372 41.425 11.478 67.715 1.094 9.163-3.619 16.957-16.869 25.285-21.094 9.319-4.728 19.051-.507 27-6 12.699-8.775 21.561-20.075 35-26 7.359-3.244 17.855-3.733 27-3.972 5.062-.133 9.701-4.903 14-4.028 10.068 2.048 18.526 11.609 28 16 9.87 4.574 26.691-3.211 36 0 7.016 2.42 6.456 15.792 14 19 10.023 4.262 29.914.233 40 5 16.551 7.822 23.348 24.861 41.054 34v217H0V75z" fill="url(#paint0_linear)"/><defs><linearGradient id="paint0_linear" x1="0" y1="292" x2="0" y2="0" gradientUnits="userSpaceOnUse"><stop stop-color="#2E366F"/><stop offset="1" stop-color="#404A9A"/></linearGradient></defs></svg>
