<svg width="690" height="153" fill="none" xmlns="http://www.w3.org/2000/svg" preserveAspectRatio="none"><path fill-rule="evenodd" clip-rule="evenodd" d="M0 40c17.38-4.157 28.757-19.926 44.946-25C55.894 11.569 50.619.115 82.796.898c13.129.32 29.973 16.877 43.15 16.102 12.023-.707 23.773-11.147 35-11 7.311.096 13.577-5.81 20.705-5.765C216.168.454 198.862 22.899 287.946 25c14.664.346 39.45-11.597 68-11 23.674.495 50.384 13.515 72 14 5.884.132 12.401-7.106 19-7 10.344.166 20.423 7.681 25 8 16.681 1.162 28.587-14.693 42-15 35.237-.807 35.032 19.851 52 16 5.278-1.198 7.566-7.511 14-9 9.195-2.128 13.669.211 23.001-1 13.768-1.787 14.485-20.59 43.999-17 20.72 2.52 27.959 28.458 43.054 37v113H0V40z" fill="url(#paint0_linear)"/><defs><linearGradient id="paint0_linear" x1="0" y1="153" x2="0" y2="0" gradientUnits="userSpaceOnUse"><stop stop-color="#4D5ABB"/><stop offset="1" stop-color="#6F82FF"/></linearGradient></defs></svg>
