<svg xmlns="http://www.w3.org/2000/svg" viewBox="0 0 198 166.9"><path d="M0 156V11l.2-.7A13.1 13.1 0 0113.4 0h113.9a12.8 12.8 0 012.3.1 13.1 13.1 0 0111.2 13.4v33.4a1.5 1.5 0 001.1 1.6 26.6 26.6 0 013.5 1.5 48.9 48.9 0 0128.4 41.1 46.7 46.7 0 01-2.4 19.2 48.4 48.4 0 01-8 14.7c-.3.4-.6.7 0 1.3L186 147l10 9.1a6.1 6.1 0 01-2.2 10.5l-.7.3h-2.9a9.4 9.4 0 01-3.8-2.7l-29.5-30.7c-.6-.6-1-.7-1.7-.2a48.7 48.7 0 01-13.3 7.8 1.4 1.4 0 00-1 1.6V154a12.8 12.8 0 01-2.6 7.6 13.7 13.7 0 01-8.7 5.4H11.1a15 15 0 01-5.5-2.3A13.7 13.7 0 010 156zm89.3-98.3c-.2-.3-.5-.2-.7-.2H42.9c-1.3 0-1.3 0-1.3-1.3v-5c0-1.7 0-1.7 1.7-1.7h55.2c.3 0 .6.1.6.4 0 1.1.6.8 1.3.5a51.6 51.6 0 0131.3-4.6c.8 0 1.1-.1 1.1-1V13.3a5.1 5.1 0 00-5.5-5.3H13.4A5.1 5.1 0 008 13.5v139.9c0 3.4 2.1 5.5 5.6 5.5h113.8a5.2 5.2 0 005.5-5.3V145c0-.9-.3-1.2-1.2-1a48.2 48.2 0 01-17.2 0 49.7 49.7 0 01-37.2-27.6 2.5 2.5 0 00-2.7-1.6H43c-1.3 0-1.4 0-1.4-1.4v-5.1c0-1.5 0-1.5 1.5-1.5h29.4c1.2 0 1.3 0 1-1.2A47.6 47.6 0 0173 87c.1-.7-.1-1-.8-1H42.9c-1 0-1.4-.3-1.3-1.3v-5.1c0-1.7 0-1.6 1.5-1.6h31a1.6 1.6 0 001.7-1.1 48.9 48.9 0 0112-17.7l1.5-1.6zm43.5 37.5V55.8a1.3 1.3 0 00-1.2-1.6 40.8 40.8 0 00-16.4-.3A41.6 41.6 0 0084.5 77c-.5 1-.4 1.1.7 1.1H98c.9 0 1.2.4 1.2 1.3v5.4c0 1.3 0 1.4-1.4 1.4H82.7c-1 0-1.5.3-1.6 1.3a44.2 44.2 0 00.6 18.1 1.4 1.4 0 001.5 1.3h14.6c1.3 0 1.4 0 1.4 1.4v5.2c0 1.3 0 1.4-1.4 1.4H86.4c-1 0-1.1 0-.6 1a42.2 42.2 0 0045.6 20.5 1.5 1.5 0 001.4-1.8V95.2zm8 0V132c0 1.2 0 1.2 1 .7A42 42 0 00164 89.4 41.3 41.3 0 00149.2 63 40.1 40.1 0 00142 58c-1-.5-1-.4-1 .6v36.6z" fill="#fff" opacity=".2"/></svg>
