<svg width="690" height="125" fill="none" xmlns="http://www.w3.org/2000/svg" preserveAspectRatio="none"><path fill-rule="evenodd" clip-rule="evenodd" d="M0 74.5C38.003 88.112 70.189 89.399 109.946 89c20.811-.209 47.783-24.903 86.001-23 19.207.956 21.775 18.794 40.999 7 80.926-49.646 79.656-6.521 124-15 32.799-6.271 78.355-48.1 118.001-57 10.22-2.294 23.276 16.905 30.999 19 15.919 4.319 20.055 1.684 24 0 9.69-4.135 39.696-17.752 67-6 18.864 8.119 30.044 28.407 42 38C655.724 62.252 672.003 70.21 690 74.656V125H0V74.5z" fill="url(#paint0_linear)"/><defs><linearGradient id="paint0_linear" x1="0" y1="125" x2="0" y2="0" gradientUnits="userSpaceOnUse"><stop stop-color="#1E234A"/><stop offset="1" stop-color="#404A9A"/></linearGradient></defs></svg>
